<svg width="154" height="44" viewBox="0 0 154 44" fill="none" xmlns="http://www.w3.org/2000/svg">
<g clip-path="url(#clip0_14_96)">
<g clip-path="url(#clip1_14_96)">
<path d="M21.6517 21.5593V0.780426H35.7153V4.39937H26.0625V9.35372H34.9913V12.9727H26.0625V17.9404H35.7555V21.5593H21.6517Z" fill="#1E1E1E"/>
<path d="M38.4771 21.5593V0.780426H42.8878V17.9404H51.8301V21.5593H38.4771Z" fill="#1E1E1E"/>
<path d="M54.1896 21.5593V0.780426H68.2531V4.39937H58.6004V9.35372H67.5292V12.9727H58.6004V17.9404H68.2934V21.5593H54.1896Z" fill="#1E1E1E"/>
<path d="M71.015 21.5593V0.780426H79.3673C80.8956 0.780426 82.1827 1.00744 83.2016 1.46148C84.2205 1.91552 84.9981 2.54316 85.5075 3.3444C86.017 4.14564 86.2851 5.06707 86.2851 6.10869C86.2851 6.92328 86.1242 7.63105 85.7891 8.24533C85.4673 8.85962 85.0115 9.35372 84.4484 9.74099C83.8853 10.1283 83.2284 10.4087 82.5044 10.5689V10.7692C83.2954 10.8093 84.0462 11.023 84.7433 11.4369C85.4405 11.8509 86.0036 12.4251 86.446 13.173C86.875 13.9074 87.1029 14.7888 87.1029 15.8171C87.1029 16.9255 86.8348 17.9003 86.2851 18.7683C85.7354 19.6363 84.931 20.3174 83.8719 20.8115C82.7994 21.3189 81.4855 21.5593 79.9304 21.5593H71.015ZM75.4257 9.47391H78.697C79.3003 9.47391 79.8365 9.36707 80.3058 9.15341C80.775 8.93974 81.1504 8.6326 81.4319 8.24533C81.7134 7.85807 81.8475 7.37732 81.8475 6.82981C81.8475 6.08198 81.5794 5.46769 81.0431 5.01366C80.5068 4.55962 79.7561 4.31925 78.7774 4.31925H75.4257V9.46055V9.47391ZM75.4257 17.9671H79.0187C80.2521 17.9671 81.1504 17.7267 81.7134 17.2593C82.2765 16.7919 82.5581 16.1643 82.5581 15.3764C82.5581 14.8022 82.424 14.2947 82.1425 13.854C81.8609 13.4133 81.4721 13.0661 80.9493 12.8258C80.4398 12.572 79.8231 12.4519 79.126 12.4519H75.4257V17.9671Z" fill="#1E1E1E"/>
<path d="M89.7976 21.5593V0.780426H98.0293C99.6113 0.780426 100.952 1.06086 102.065 1.62173C103.177 2.1826 104.035 2.97049 104.625 3.98539C105.215 5.0003 105.51 6.20216 105.51 7.57763C105.51 8.9531 105.215 10.1416 104.612 11.1298C104.009 12.118 103.151 12.8792 102.024 13.4133C100.898 13.9341 99.5308 14.2012 97.922 14.2012H92.4119V10.6758H97.2115C98.0561 10.6758 98.7532 10.5556 99.3163 10.3286C99.8794 10.1015 100.295 9.75434 100.563 9.3003C100.831 8.84626 100.979 8.27204 100.979 7.59098C100.979 6.90993 100.845 6.32235 100.563 5.84161C100.282 5.37421 99.866 5.01365 99.3163 4.75993C98.7666 4.5062 98.0561 4.38602 97.1981 4.38602H94.2218V21.5727H89.811L89.7976 21.5593ZM101.073 12.1046L106.261 21.5593H101.394L96.3266 12.1046H101.086H101.073Z" fill="#1E1E1E"/>
<path d="M112.884 0.780426V21.5593H108.473V0.780426H112.884Z" fill="#1E1E1E"/>
<path d="M115.176 4.41273V0.780426H132.31V4.39937H125.929V21.5593H121.571V4.41273H115.19H115.176Z" fill="#1E1E1E"/>
<path d="M35.112 43.2863V27.7022H38.8927V33.9519H45.0597V27.7022H48.8404V43.2863H45.0597V37.0233H38.8927V43.2863H35.112Z" fill="#1E1E1E"/>
<path d="M65.907 35.4876C65.907 37.1969 65.5719 38.6525 64.9149 39.8543C64.258 41.0562 63.3598 41.9509 62.2336 42.5652C61.1075 43.1795 59.8472 43.5 58.4395 43.5C57.0318 43.5 55.7716 43.1929 54.6455 42.5652C53.5193 41.9376 52.6211 41.0295 51.9641 39.841C51.3072 38.6525 50.972 37.1969 50.972 35.4876C50.972 33.7783 51.3072 32.3227 51.9641 31.1208C52.6211 29.9323 53.5193 29.0242 54.6455 28.4099C55.7716 27.7957 57.0318 27.4752 58.4395 27.4752C59.8472 27.4752 61.1075 27.7823 62.2336 28.4099C63.3598 29.0242 64.258 29.9323 64.9149 31.1208C65.5719 32.3093 65.907 33.7649 65.907 35.4876ZM62.0325 35.4876C62.0325 34.4727 61.885 33.618 61.6035 32.9103C61.322 32.2158 60.9064 31.6817 60.3701 31.3211C59.8338 30.9606 59.1903 30.787 58.4395 30.787C57.6888 30.787 57.0453 30.9606 56.509 31.3211C55.9727 31.6817 55.5571 32.2158 55.2622 32.9103C54.9806 33.6047 54.8332 34.4727 54.8332 35.4876C54.8332 36.5025 54.9806 37.3571 55.2622 38.0649C55.5437 38.7593 55.9593 39.2935 56.509 39.654C57.0453 40.0146 57.6888 40.1882 58.4395 40.1882C59.1903 40.1882 59.8338 40.0146 60.3701 39.654C60.9064 39.2935 61.322 38.7593 61.6035 38.0649C61.885 37.3705 62.0325 36.5025 62.0325 35.4876Z" fill="#1E1E1E"/>
<path d="M66.6176 30.7603V27.7022H79.8365V30.7603H75.0905V43.2863H71.3635V30.7603H66.6176Z" fill="#1E1E1E"/>
<path d="M81.3649 43.2863V27.7022H92.2779V30.7603H85.1455V33.9519H91.7148V37.0233H85.1455V40.2283H92.2779V43.2863H81.3649Z" fill="#1E1E1E"/>
<path d="M94.1682 43.2863V27.7022H97.9489V40.2283H104.465V43.2863H94.1682Z" fill="#1E1E1E"/>
<path d="M114.533 32.3627C114.479 31.8019 114.251 31.3745 113.863 31.054C113.46 30.7469 112.897 30.5866 112.16 30.5866C111.677 30.5866 111.262 30.6534 110.94 30.7736C110.618 30.8938 110.363 31.0674 110.203 31.2944C110.042 31.5214 109.961 31.7618 109.948 32.0556C109.948 32.2826 109.988 32.4963 110.095 32.6699C110.203 32.8435 110.35 33.0037 110.551 33.1373C110.752 33.2708 110.994 33.391 111.275 33.4978C111.557 33.6046 111.878 33.6848 112.24 33.7649L113.581 34.072C114.359 34.2456 115.042 34.4593 115.632 34.7397C116.222 35.0202 116.718 35.354 117.134 35.7413C117.549 36.1286 117.844 36.5692 118.059 37.0767C118.273 37.5842 118.381 38.145 118.381 38.7727C118.381 39.7609 118.126 40.6022 117.63 41.3099C117.134 42.0177 116.423 42.5519 115.498 42.9258C114.573 43.2997 113.46 43.4866 112.16 43.4866C110.859 43.4866 109.706 43.2863 108.741 42.8991C107.763 42.5118 107.012 41.9109 106.475 41.123C105.939 40.3217 105.658 39.3202 105.644 38.105H109.264C109.291 38.6124 109.425 39.0264 109.666 39.3602C109.908 39.6941 110.229 39.9478 110.658 40.1214C111.087 40.295 111.57 40.3751 112.12 40.3751C112.629 40.3751 113.058 40.3084 113.42 40.1748C113.782 40.0413 114.05 39.841 114.251 39.6006C114.452 39.3602 114.546 39.0798 114.546 38.7593C114.546 38.4655 114.452 38.2118 114.265 37.9981C114.09 37.7845 113.809 37.6109 113.447 37.4506C113.085 37.2904 112.602 37.1568 112.039 37.0233L110.404 36.636C109.05 36.3289 107.977 35.8214 107.199 35.127C106.422 34.4326 106.033 33.4978 106.033 32.3093C106.033 31.3478 106.288 30.5065 106.811 29.772C107.334 29.0376 108.057 28.4767 108.983 28.0761C109.908 27.6755 110.967 27.4618 112.147 27.4618C113.326 27.4618 114.412 27.6621 115.31 28.0761C116.209 28.4901 116.892 29.0509 117.388 29.7987C117.885 30.5332 118.139 31.3879 118.139 32.3494H114.519L114.533 32.3627Z" fill="#1E1E1E"/>
<path d="M129.294 29.959L130.058 32.1491C130.111 32.296 130.245 32.3894 130.393 32.3894L132.712 32.4429C133.061 32.4429 133.208 32.8969 132.927 33.0972L131.077 34.4994C130.956 34.5929 130.902 34.7531 130.943 34.9L131.613 37.1168C131.72 37.4506 131.331 37.7177 131.05 37.5307L129.146 36.2087C129.025 36.1152 128.851 36.1152 128.731 36.2087L126.827 37.5307C126.545 37.7311 126.156 37.4506 126.264 37.1168L126.934 34.9C126.974 34.7531 126.934 34.5929 126.8 34.4994L124.95 33.0972C124.668 32.8835 124.816 32.4429 125.164 32.4429L127.484 32.3894C127.631 32.3894 127.779 32.2826 127.819 32.1491L128.583 29.959C128.704 29.6252 129.16 29.6252 129.28 29.959H129.294Z" fill="#1E1E1E"/>
<path d="M133.785 41.1363H124.105V43.273H133.785V41.1363Z" fill="#1E1E1E"/>
<path d="M24.0917 29.959L23.3275 32.1491C23.2739 32.296 23.1398 32.3894 22.9924 32.3894L20.673 32.4429C20.3244 32.4429 20.177 32.8969 20.4585 33.0972L22.3086 34.4994C22.4293 34.5929 22.4829 34.7531 22.4427 34.9L21.7724 37.1168C21.6651 37.4506 22.0539 37.7177 22.3354 37.5307L24.2392 36.2087C24.3598 36.1152 24.5341 36.1152 24.6548 36.2087L26.5585 37.5307C26.8401 37.7311 27.2289 37.4506 27.1216 37.1168L26.4513 34.9C26.4111 34.7531 26.4513 34.5929 26.5853 34.4994L28.4355 33.0972C28.717 32.8835 28.5695 32.4429 28.221 32.4429L25.9016 32.3894C25.7541 32.3894 25.6067 32.2826 25.5664 32.1491L24.8023 29.959C24.6816 29.6252 24.2258 29.6252 24.1051 29.959H24.0917Z" fill="#1E1E1E"/>
<path d="M29.3873 41.1363H19.4932V43.273H29.3873V41.1363Z" fill="#1E1E1E"/>
<path d="M134.294 0.780426H139.228L143.987 9.72763H144.188L148.948 0.780426H153.881L146.266 14.2146V29.7053H141.882V14.2146L134.294 0.780426Z" fill="#1E1E1E"/>
<path d="M18.7693 8.0584H14.3049C14.2244 7.48417 14.0502 6.97672 13.8088 6.52268C13.5541 6.06865 13.2323 5.69473 12.8436 5.37424C12.4548 5.05374 11.9989 4.81337 11.4895 4.63976C10.98 4.46616 10.417 4.38604 9.82706 4.38604C8.74112 4.38604 7.80266 4.65312 7.01167 5.18728C6.20727 5.72144 5.59057 6.49597 5.14815 7.49753C4.70573 8.51243 4.49122 9.741 4.49122 11.1699C4.49122 11.2099 4.49122 19.1155 4.49122 19.1556C4.49122 20.5845 4.73254 21.7863 5.16155 22.7612C5.60397 23.7627 6.23408 24.5239 7.02507 25.0447C7.82947 25.5522 8.75453 25.8193 9.80025 25.8193C10.3901 25.8193 10.9398 25.7391 11.4493 25.5922C11.9587 25.4453 12.4011 25.205 12.8033 24.9112C13.1921 24.604 13.5273 24.2435 13.782 23.8162C14.0501 23.3888 14.2244 22.8947 14.3317 22.3339L18.7961 22.3606C18.6754 23.3087 18.3939 24.2301 17.9381 25.1115C17.4822 25.9929 16.8655 26.7808 16.088 27.4752C15.3104 28.1696 14.3987 28.7171 13.3396 29.1177C12.2805 29.5183 11.0739 29.7186 9.73322 29.7186C7.86969 29.7186 6.20727 29.3047 4.74595 28.4634C3.28462 27.6221 2.13165 26.4068 1.28704 24.8177C0.442419 23.2419 0.0134066 21.3724 0 19.169C0 19.1289 0 11.2233 0 11.1832C0 8.91305 0.429012 6.99007 1.28704 5.40094C2.14506 3.81181 3.29803 2.5966 4.77276 1.76865C6.23408 0.927342 7.89651 0.513367 9.71981 0.513367C10.9264 0.513367 12.0526 0.686969 13.0849 1.02082C14.1172 1.35467 15.0422 1.84877 15.8466 2.50312C16.651 3.15747 17.308 3.94535 17.804 4.86678C18.3135 5.80156 18.6352 6.86989 18.7827 8.07175L18.7693 8.0584Z" fill="#1E1E1E"/>
</g>
</g>
<defs>
<clipPath id="clip0_14_96">
<rect width="153.895" height="43" fill="white" transform="translate(0 0.5)"/>
</clipPath>
<clipPath id="clip1_14_96">
<rect width="153.895" height="43" fill="white" transform="translate(0 0.5)"/>
</clipPath>
</defs>
</svg>
